<svg width="113" height="131" viewBox="0 0 113 131" fill="none" xmlns="http://www.w3.org/2000/svg">
<g clip-path="url(#clip0_1028_21070)">
<path d="M53.8807 29.0028C53.8807 23.7196 49.6041 19.4377 44.3209 19.4377C39.0377 19.4377 34.7559 23.7196 34.7559 29.0028C34.7559 30.3327 35.0271 31.6 35.5173 32.7474H53.114C53.6043 31.5948 53.8755 30.3327 53.8755 29.0028H53.8807Z" fill="#F2768D"/>
<path d="M104.991 2.4774C102.493 0.271294 99.9169 -0.495368 97.7264 0.313017C97.3301 0.459047 96.9546 0.652017 96.6103 0.891924C96.5008 0.970155 96.3913 1.04839 96.287 1.13705L58.9605 29.2427C58.5589 29.5452 58.3242 30.0146 58.3242 30.5153C58.3242 31.4019 59.0387 32.106 59.9097 32.106C59.9514 32.106 59.9931 32.106 60.0349 32.106L106.003 28.596C106.097 28.6065 106.191 28.6065 106.285 28.6065C106.64 28.6065 106.984 28.57 107.323 28.4969C107.573 28.45 107.813 28.3822 108.053 28.2935C110.243 27.4852 111.704 25.2269 112.173 21.9256C112.611 18.7963 112.11 15.0569 110.76 11.4009C109.409 7.73972 107.359 4.57399 104.991 2.48262V2.4774ZM110.624 21.7013C110.243 24.4029 109.138 26.223 107.516 26.8228C107.271 26.9167 107.01 26.9741 106.749 27.0053C105.273 27.1931 103.557 26.4838 101.821 24.9505C99.6457 23.026 97.7525 20.0845 96.4904 16.6632C94.2634 10.6395 94.6546 4.59485 97.1997 2.41482C97.523 2.1384 97.8777 1.92457 98.2688 1.77854C98.6548 1.63251 99.0668 1.56471 99.4997 1.56471C100.861 1.56471 102.405 2.27922 103.959 3.65086C105.049 4.61049 106.061 5.82568 106.968 7.23383C107.87 8.63677 108.658 10.2275 109.294 11.9381C110.556 15.3594 111.026 18.8276 110.624 21.7013Z" fill="#F2768D"/>
<path d="M31.6164 54.4537C32.1327 54.0417 32.8942 54.3494 32.9829 55.0013L34.4119 65.4999H58.7834L60.4836 53.0195C60.5566 52.4928 61.0886 52.1642 61.5945 52.3311L72.4998 55.9871C75.1075 56.8632 77.8039 54.9231 77.8039 52.1694V36.4294C77.8039 35.2663 76.8599 34.3171 75.6916 34.3171C74.732 34.3171 73.8923 34.9638 73.6524 35.8922L70.8674 46.5472L61.1616 42.2967C59.5865 41.6082 57.8811 41.2484 56.16 41.2484H35.7522C33.5931 41.2484 31.5173 42.0933 29.9736 43.6057L7.61523 65.4999H17.7904L31.6164 54.4537Z" fill="#C974AF"/>
<path d="M44.3198 38.5625C48.2731 38.5625 51.6579 36.1634 53.1182 32.7473H35.5215C36.9818 36.1634 40.3718 38.5625 44.325 38.5625H44.3198Z" fill="#C974AF"/>
<path d="M35.543 73.782C35.6421 74.5278 35.616 75.2841 35.4596 76.0194L30.7031 98.2526H41.8797L45.932 88.6511C46.1824 88.0565 47.0221 88.0565 47.2724 88.6511L51.3248 98.2526H62.5013L57.7449 76.0194C57.5884 75.2841 57.5571 74.5278 57.6614 73.782L58.788 65.5H34.4165L35.543 73.782Z" fill="#7D74B6"/>
<path d="M0.614923 75.8109C1.55369 76.9531 3.23826 77.1252 4.39086 76.2021L17.7892 65.4949H7.61397L0.813107 72.1549C-0.188246 73.1354 -0.276908 74.7209 0.614923 75.8057V75.8109Z" fill="#7D74B6"/>
<path d="M28.6526 129.597L41.8788 98.2527H30.7022L24.2925 128.225C23.9848 129.655 25.0748 131 26.5403 131C27.4634 131 28.2979 130.447 28.6578 129.597H28.6526Z" fill="#35AAC9"/>
<path d="M68.9105 128.225L62.5008 98.2527H51.3242L64.5504 129.597C64.9103 130.447 65.7448 131 66.6679 131C68.1282 131 69.2182 129.655 68.9157 128.225H68.9105Z" fill="#35AAC9"/>
</g>
<defs>
<clipPath id="clip0_1028_21070">
<rect width="112.329" height="131" fill="white"/>
</clipPath>
</defs>
</svg>
