<svg width="132" height="112" viewBox="0 0 132 112" fill="none" xmlns="http://www.w3.org/2000/svg">
<g id="mdi:announcement-outline">
<path id="Vector" d="M66 37.3334H22.3333C19.438 37.3334 16.6613 38.3167 14.614 40.0671C12.5668 41.8174 11.4166 44.1914 11.4166 46.6667V65.3334C11.4166 67.8088 12.5668 70.1827 14.614 71.9331C16.6613 73.6834 19.438 74.6667 22.3333 74.6667H27.7916V93.3334C27.7916 94.5711 28.3667 95.7581 29.3903 96.6332C30.414 97.5084 31.8023 98.0001 33.25 98.0001H44.1666C45.6143 98.0001 47.0026 97.5084 48.0262 96.6332C49.0499 95.7581 49.625 94.5711 49.625 93.3334V74.6667H66L93.2916 93.3334V18.6667L66 37.3334ZM82.375 72.8001L71.4583 65.3334H22.3333V46.6667H71.4583L82.375 39.2001V72.8001ZM117.854 56.0001C117.854 63.9801 112.614 71.2134 104.208 74.6667V37.3334C112.56 40.8334 117.854 48.0667 117.854 56.0001Z" fill="black"/>
</g>
</svg>
