<svg width="41" height="35" viewBox="0 0 41 35" fill="none" xmlns="http://www.w3.org/2000/svg">
<g id="mdi:announcement-outline">
<path id="Vector" d="M20.5 11.6666H6.83335C5.9272 11.6666 5.05815 11.9739 4.41741 12.5209C3.77666 13.0678 3.41669 13.8097 3.41669 14.5833V20.4166C3.41669 21.1901 3.77666 21.932 4.41741 22.479C5.05815 23.026 5.9272 23.3333 6.83335 23.3333H8.54169V29.1666C8.54169 29.5534 8.72167 29.9243 9.04205 30.1978C9.36242 30.4713 9.79694 30.6249 10.25 30.6249H13.6667C14.1198 30.6249 14.5543 30.4713 14.8747 30.1978C15.195 29.9243 15.375 29.5534 15.375 29.1666V23.3333H20.5L29.0417 29.1666V5.83325L20.5 11.6666ZM25.625 22.7499L22.2084 20.4166H6.83335V14.5833H22.2084L25.625 12.2499V22.7499ZM36.7292 17.4999C36.7292 19.9937 35.0892 22.2541 32.4584 23.3333V11.6666C35.0721 12.7603 36.7292 15.0208 36.7292 17.4999Z" fill="black"/>
</g>
</svg>
