<svg width="66" height="58" viewBox="0 0 66 58" fill="none" xmlns="http://www.w3.org/2000/svg">
<g id="ph:user-bold">
<path id="Vector" d="M60.4261 47.5781C56.8914 42.1263 51.3719 37.8784 44.7563 35.5182C48.0462 33.3498 50.4763 30.3268 51.7025 26.8772C52.9287 23.4277 52.8887 19.7266 51.5883 16.2981C50.2878 12.8697 47.7928 9.88768 44.4567 7.77459C41.1205 5.66149 37.1124 4.52441 33 4.52441C28.8876 4.52441 24.8795 5.66149 21.5433 7.77459C18.2072 9.88768 15.7122 12.8697 14.4117 16.2981C13.1113 19.7266 13.0713 23.4277 14.2975 26.8772C15.5237 30.3268 17.9538 33.3498 21.2438 35.5182C14.6281 37.8784 9.10863 42.1263 5.57391 47.5781C5.35489 47.8876 5.20891 48.2326 5.14466 48.5927C5.0804 48.9527 5.09918 49.3205 5.19988 49.674C5.30058 50.0276 5.48115 50.3597 5.73084 50.6507C5.98053 50.9417 6.29425 51.1857 6.65336 51.368C7.01246 51.5503 7.40962 51.6673 7.82121 51.7121C8.23281 51.7568 8.65044 51.7284 9.04927 51.6285C9.44811 51.5285 9.82002 51.3592 10.1429 51.1304C10.4657 50.9016 10.733 50.6182 10.9287 50.2968C15.6002 43.2009 23.8502 38.9687 33 38.9687C42.1498 38.9687 50.3998 43.2032 55.0713 50.2968C55.4955 50.8962 56.1682 51.3271 56.9473 51.4984C57.7264 51.6698 58.5508 51.5682 59.2462 51.2151C59.9416 50.8621 60.4535 50.2852 60.6737 49.6064C60.8939 48.9277 60.8051 48.2003 60.4261 47.5781ZM19.5938 21.75C19.5938 19.4198 20.38 17.1421 21.8531 15.2046C23.3262 13.2672 25.42 11.7572 27.8697 10.8655C30.3193 9.97381 33.0149 9.7405 35.6154 10.1951C38.216 10.6497 40.6048 11.7717 42.4797 13.4194C44.3546 15.067 45.6314 17.1662 46.1487 19.4516C46.6659 21.7369 46.4005 24.1057 45.3858 26.2584C44.3711 28.4112 42.6528 30.2512 40.4481 31.5457C38.2435 32.8403 35.6515 33.5312 33 33.5312C29.4457 33.5276 26.0382 32.2852 23.5249 30.0766C21.0116 27.868 19.5979 24.8734 19.5938 21.75Z" fill="black"/>
</g>
</svg>
