<?xml version="1.0" encoding="UTF-8"?>
<svg version="1.1" xmlns="http://www.w3.org/2000/svg" width="500" height="502">
<path d="M0 0 C103.29 0 206.58 0 313 0 C313 18.15 313 36.3 313 55 C306.131875 58.650625 306.131875 58.650625 299.125 62.375 C289.89278284 67.29162101 280.67927864 72.23127742 271.5559082 77.34790039 C265.50943004 80.73440642 259.41352407 84.02546908 253.3125 87.3125 C245.44548964 91.55402832 237.63729525 95.88246526 229.875 100.3125 C220.37004558 105.73244835 210.74641329 110.90187767 201.07601929 116.01785278 C191.43215506 121.12216241 181.88610269 126.36910136 172.44335938 131.83984375 C170.75988312 132.80800141 169.06456721 133.7559505 167.35644531 134.67993164 C164.99021037 135.94797308 164.99021037 135.94797308 162.90136719 137.50561523 C160.44696439 139.05207225 158.90436538 139.73933424 156 140 C150.55124078 138.23950266 145.80233569 135.43847187 140.875 132.5625 C139.43742657 131.75677597 137.99811282 130.95414963 136.55712891 130.15454102 C132.99172323 128.16628906 129.44895161 126.14142802 125.91308594 124.10119629 C123.23278943 122.55838396 120.53879517 121.040306 117.84375 119.5234375 C115.11302441 117.98473341 112.38450277 116.44293419 109.66357422 114.88696289 C101.85841009 110.43169306 93.94173162 106.20467294 86 102 C77.09538429 97.2853402 68.24705523 92.5035559 59.5 87.5 C49.4667865 81.76173117 39.29835816 76.30181668 29.078125 70.90625 C19.30304579 65.73498684 9.67466702 60.37481501 0 55 C0 36.85 0 18.7 0 0 Z " fill="#D35590" transform="translate(95,121)"/>
<path d="M0 0 C0.91423845 0.15517499 1.8284769 0.31034998 2.77041954 0.47022724 C5.81166257 0.98827738 8.85095755 1.51695327 11.8903656 2.0456543 C14.07874729 2.420677 16.26724221 2.79503944 18.45584106 3.16879272 C24.38190482 4.18272274 30.30634537 5.20586201 36.23053479 6.23067856 C42.42758011 7.30107654 48.62608139 8.36297511 54.82443237 9.42578125 C65.22289477 11.20993948 75.62044832 12.99931779 86.01731873 14.79272461 C96.72276974 16.6393452 107.42875818 18.48279888 118.13548279 20.32202148 C118.79623129 20.43552732 119.4569798 20.54903315 120.13775099 20.66597855 C123.45277024 21.23542484 126.76780013 21.80480916 130.08283532 22.37416267 C157.55343306 27.09243154 185.02218367 31.82137989 212.48973083 36.55737305 C212.48973083 37.21737305 212.48973083 37.87737305 212.48973083 38.55737305 C211.72836036 38.7009235 210.96698988 38.84447395 210.18254757 38.99237442 C191.30851205 42.5509688 172.43460309 46.11023378 153.56082058 49.67016983 C143.54389675 51.55952566 133.52691271 53.44856156 123.50983465 55.33709955 C116.44486982 56.66911037 109.38002267 58.00174449 102.31521571 59.33459234 C97.05748625 60.32642478 91.79957294 61.31727594 86.54153359 62.30746412 C69.96057153 65.43047697 53.38260086 68.56668195 36.81827867 71.77692652 C34.56421275 72.2134738 32.30994609 72.64896701 30.05559254 73.08402634 C29.33123562 73.22382833 28.60687869 73.36363032 27.86057156 73.50766873 C26.42766359 73.78419314 24.99474649 74.06067023 23.56181985 74.33709788 C20.14526367 74.99682825 16.72943077 75.65993231 13.31504631 76.33081818 C9.61689949 77.05644057 5.91696736 77.77221166 2.21653748 78.48608398 C0.61690124 78.80473042 0.61690124 78.80473042 -1.01505089 79.12981415 C-12.74759203 81.37147317 -22.64889305 80.02006107 -34.29640198 77.77856445 C-35.88645918 77.47881945 -37.47665288 77.17979773 -39.06697083 76.88143921 C-43.38118683 76.06993726 -47.69342705 75.24834951 -52.00538731 74.42495775 C-56.57854538 73.55352306 -61.15348173 72.69152362 -65.72822571 71.82846069 C-74.44565637 70.18238384 -83.16148512 68.5279808 -91.87676311 66.87054861 C-102.53709874 64.8436314 -113.19945043 62.8274028 -123.86183167 60.8112793 C-135.09479154 58.68703778 -146.32740208 56.56101883 -157.5582428 54.42559814 C-161.15486223 53.74188108 -164.75149939 53.0582574 -168.34815979 52.37475586 C-169.21860459 52.20933178 -170.0890494 52.04390771 -170.98587132 51.87347078 C-181.90986779 49.79836641 -192.83769416 47.74590008 -203.77244616 45.72823358 C-206.98429184 45.13510675 -210.19556529 44.53889557 -213.40693665 43.94320679 C-217.95155781 43.10025403 -222.49795634 42.26804103 -227.04573059 41.44229126 C-228.99851263 41.08055318 -230.95121643 40.71839233 -232.90382385 40.35571289 C-234.21660938 40.12236551 -234.21660938 40.12236551 -235.55591583 39.88430405 C-237.55429609 39.50816036 -239.53553698 39.04259516 -241.51026917 38.55737305 C-241.84026917 37.89737305 -242.17026917 37.23737305 -242.51026917 36.55737305 C-214.12865492 31.70778426 -185.7457501 26.86581756 -157.36102859 22.03444678 C-154.00785241 21.46369489 -150.65468726 20.89287822 -147.30152893 20.32202148 C-146.63399202 20.20837812 -145.9664551 20.09473476 -145.27868979 19.97764766 C-134.47849449 18.13883317 -123.67920087 16.29477481 -112.88023294 14.44876754 C-101.79457431 12.55387304 -90.70794265 10.6647499 -79.62044758 8.78062534 C-73.39487995 7.72251232 -67.16978178 6.66179357 -60.94572639 5.59481812 C-55.08561981 4.59031847 -49.22436498 3.5928153 -43.36216164 2.6006279 C-41.21273336 2.23557324 -39.06373426 1.86798099 -36.91521072 1.4976387 C-33.97675196 0.99152916 -31.03687065 0.49466013 -28.09646606 0 C-27.25110922 -0.14785604 -26.40575237 -0.29571207 -25.53477865 -0.44804859 C-16.73256109 -1.90775913 -8.7608618 -1.54654374 0 0 Z " fill="#D65595" transform="translate(266.51026916503906,20.442626953125)"/>
<path d="M0 0 C51.48 0 102.96 0 156 0 C156 45.87 156 91.74 156 139 C151.71464121 137.57154707 148.41457788 136.29890041 144.53515625 134.19921875 C143.50036133 133.64121582 142.46556641 133.08321289 141.39941406 132.50830078 C140.29823242 131.90743652 139.19705078 131.30657227 138.0625 130.6875 C136.90588867 130.06085449 135.74927734 129.43420898 134.55761719 128.78857422 C126.30324808 124.30672135 118.12644514 119.69341101 109.96899414 115.0378418 C101.41748786 110.18203472 92.74424552 105.57099316 84.05432129 100.9697876 C75.79987198 96.59637853 67.60950653 92.13886053 59.5 87.5 C49.4667865 81.76173117 39.29835816 76.30181668 29.078125 70.90625 C19.30304579 65.73498684 9.67466702 60.37481501 0 55 C0 36.85 0 18.7 0 0 Z " fill="#E95691" transform="translate(95,121)"/>
<path d="M0 0 C27.56256804 19.61366346 41.4260142 53.89074035 47.99609375 85.984375 C51.55594539 107.85904955 51.7866521 134.8057669 39.5 154.0859375 C33.65001994 162.02351125 26.07733098 167.51996764 16.25 169.33984375 C2.88869758 170.72204745 -10.29778144 163.77374637 -20.53588867 155.75585938 C-41.57913068 138.51066592 -53.53739285 113.28445073 -61.0625 87.65234375 C-61.30516602 86.83403076 -61.54783203 86.01571777 -61.79785156 85.17260742 C-65.18250317 73.06661342 -66.1172368 60.93063157 -66.0625 48.40234375 C-66.05621582 46.43056152 -66.05621582 46.43056152 -66.04980469 44.41894531 C-65.94447549 35.38976804 -65.45502091 27.01216401 -62.75 18.33984375 C-62.45996094 17.40785156 -62.16992188 16.47585937 -61.87109375 15.515625 C-58.23671389 5.34240272 -51.06755168 -3.15820573 -41.8515625 -8.828125 C-27.34804482 -15.34552852 -11.99466142 -8.26091467 0 0 Z M-29.4296875 35.8984375 C-38.06991186 46.23661639 -37.80500961 60.5653298 -36.75 73.33984375 C-34.64150616 91.28249416 -26.92142739 109.100681 -12.81640625 120.796875 C-7.36921163 124.86425095 -2.68521404 127.02314844 4.21484375 126.65625 C9.11338366 125.89467278 12.11442821 122.94600863 15.1171875 119.140625 C23.34660912 106.05868235 21.05687792 87.79287845 17.79785156 73.4609375 C13.95762173 58.59288188 6.25020946 44.09509045 -6.8125 35.52734375 C-14.48655623 31.01493931 -22.3941061 29.37007243 -29.4296875 35.8984375 Z " fill="#7652A2" transform="translate(154.75,229.66015625)"/>
<path d="M0 0 C9.20756508 8.32411 10.3080734 20.11276631 11.26953125 31.890625 C11.89958503 52.20985933 5.48866766 69.9672958 -3.91796875 87.59375 C-4.24796875 88.25375 -4.57796875 88.91375 -4.91796875 89.59375 C-3.82290485 91.85491014 -3.82290485 91.85491014 -2.15625 94.37109375 C-1.53693604 95.35126465 -0.91762207 96.33143555 -0.27954102 97.34130859 C0.39665283 98.39398926 1.07284668 99.44666992 1.76953125 100.53125 C2.78672241 102.13734131 2.78672241 102.13734131 3.82446289 103.77587891 C5.90215543 107.05378364 7.99040824 110.32472002 10.08203125 113.59375 C11.86714177 116.38609393 13.65147076 119.17889073 15.4309082 121.97485352 C16.47411467 123.61252895 17.52198991 125.24724152 18.57495117 126.87866211 C19.04006104 127.60706299 19.5051709 128.33546387 19.984375 129.0859375 C20.39163818 129.71870605 20.79890137 130.35147461 21.21850586 131.00341797 C22.08203125 132.59375 22.08203125 132.59375 22.08203125 134.59375 C18.1904897 136.72011912 14.29435232 138.83773709 10.39379883 140.94750977 C9.06862057 141.66584733 7.74470809 142.38652527 6.42211914 143.10961914 C4.51649838 144.15093804 2.60642491 145.1836459 0.6953125 146.21484375 C-0.45155029 146.8380249 -1.59841309 147.46120605 -2.7800293 148.10327148 C-5.57916351 149.43282212 -7.86824053 150.17163365 -10.91796875 150.59375 C-11.79195313 149.17449219 -11.79195313 149.17449219 -12.68359375 147.7265625 C-17.99591856 139.14477714 -23.45663413 130.69003933 -29.15722656 122.35986328 C-29.64803711 121.63524902 -30.13884766 120.91063477 -30.64453125 120.1640625 C-31.08361816 119.52227051 -31.52270508 118.88047852 -31.97509766 118.21923828 C-32.91796875 116.59375 -32.91796875 116.59375 -32.91796875 114.59375 C-33.54445313 114.9546875 -34.1709375 115.315625 -34.81640625 115.6875 C-36.04230469 116.38359375 -36.04230469 116.38359375 -37.29296875 117.09375 C-38.51113281 117.78984375 -38.51113281 117.78984375 -39.75390625 118.5 C-41.91796875 119.59375 -41.91796875 119.59375 -43.91796875 119.59375 C-43.91796875 136.42375 -43.91796875 153.25375 -43.91796875 170.59375 C-50.81703125 174.30625 -50.81703125 174.30625 -57.85546875 178.09375 C-60.03450806 179.2684082 -60.03450806 179.2684082 -62.25756836 180.46679688 C-63.39202393 181.07587891 -64.52647949 181.68496094 -65.6953125 182.3125 C-66.59449402 182.79831543 -66.59449402 182.79831543 -67.51184082 183.29394531 C-71.80389695 185.59375 -71.80389695 185.59375 -72.91796875 185.59375 C-72.91796875 132.13375 -72.91796875 78.67375 -72.91796875 23.59375 C-64.24334058 18.63681962 -55.57905686 13.71672874 -46.79296875 8.96875 C-45.81199219 8.43507812 -44.83101563 7.90140625 -43.8203125 7.3515625 C-38.73756083 4.59979681 -33.63095484 1.89600877 -28.48828125 -0.7421875 C-27.53969238 -1.22993652 -26.59110352 -1.71768555 -25.61376953 -2.22021484 C-17.09218334 -5.96934233 -7.56190638 -5.54437128 0 0 Z M-35.16796875 40.46875 C-35.90015625 40.84644531 -36.63234375 41.22414063 -37.38671875 41.61328125 C-40.87494438 43.27940312 -40.87494438 43.27940312 -43.91796875 45.59375 C-44.00652036 48.2600103 -44.03321548 50.90022114 -44.015625 53.56640625 C-44.01421005 54.36404892 -44.0127951 55.16169159 -44.01133728 55.98350525 C-44.00572191 58.54112435 -43.99316687 61.09865718 -43.98046875 63.65625 C-43.97545573 65.38606645 -43.97089248 67.11588426 -43.96679688 68.84570312 C-43.9557475 73.09508553 -43.93847261 77.34440312 -43.91796875 81.59375 C-34.75110741 77.96462097 -26.90265612 74.461068 -21.91796875 65.59375 C-21.58023438 65.01238281 -21.2425 64.43101562 -20.89453125 63.83203125 C-17.86456744 57.42463071 -18.12947832 49.49690641 -18.91796875 42.59375 C-20.2363604 39.44236867 -21.00818099 38.03555341 -24.08984375 36.5390625 C-28.3595346 36.62162558 -31.45859918 38.47396312 -35.16796875 40.46875 Z " fill="#7652A2" transform="translate(391.91796875,224.40625)"/>
<path d="M0 0 C4.46431523 1.48810508 7.59320407 2.74470559 11.53515625 5.0546875 C13.10450928 5.97012329 13.10450928 5.97012329 14.70556641 6.90405273 C15.81335449 7.55446533 16.92114258 8.20487793 18.0625 8.875 C19.22496589 9.5418125 20.3882252 10.2072436 21.55224609 10.87133789 C27.10324234 14.05153621 32.54214365 17.31059324 37.81640625 20.94140625 C46.59222742 27.20518844 46.59222742 27.20518844 56.8359375 28.51953125 C60.3496808 27.06738967 63.34578542 24.91673112 66.4296875 22.71875 C71.41121716 19.38763594 76.76770586 16.66200456 82.03686523 13.81652832 C83.96432686 12.76938044 85.88303307 11.70797216 87.79882812 10.63964844 C88.41060913 10.29853027 89.02239014 9.95741211 89.65270996 9.60595703 C91.3298045 8.66950947 93.00670577 7.73271582 94.68359375 6.79589844 C98.41035154 4.77778666 102.20932736 2.89533632 106 1 C106 13.87 106 26.74 106 40 C101.153125 42.59875 96.30625 45.1975 91.3125 47.875 C89.79180908 48.69210449 88.27111816 49.50920898 86.7043457 50.35107422 C85.48660188 51.00248619 84.26875393 51.65370355 83.05078125 52.3046875 C82.42860718 52.63992432 81.80643311 52.97516113 81.16540527 53.32055664 C77.83693186 55.09618317 74.51202115 56.63035032 71 58 C71.02074034 58.96022851 71.02074034 58.96022851 71.04189968 59.93985558 C71.37381109 75.54841506 71.6216836 91.15574039 71.77718258 106.76695824 C71.85439055 114.31679728 71.95954537 121.86427504 72.1315918 129.41259766 C72.28155939 135.99540238 72.37797439 142.5764972 72.41132742 149.1609627 C72.43081654 152.64546779 72.47624919 156.12508388 72.58595085 159.60801315 C73.22659855 180.74478972 73.22659855 180.74478972 69.52058792 186.16284943 C64.69961785 190.89777786 58.6142516 193.70042355 52 195 C50.20068359 194.21142578 50.20068359 194.21142578 48.3984375 192.9453125 C47.41617188 192.27048828 47.41617188 192.27048828 46.4140625 191.58203125 C45.74117187 191.10121094 45.06828125 190.62039063 44.375 190.125 C43.02907793 189.1894822 41.68274254 188.25455869 40.3359375 187.3203125 C39.74345215 186.90023926 39.1509668 186.48016602 38.54052734 186.04736328 C36.96950117 184.92931447 36.96950117 184.92931447 35 184 C35 142.09 35 100.18 35 57 C33.35 56.34 31.7 55.68 30 55 C27.80183855 53.8111649 25.62235944 52.5874801 23.45703125 51.33984375 C22.84736008 50.9899086 22.2376889 50.63997345 21.60954285 50.2794342 C19.67541897 49.16851124 17.74389229 48.05316393 15.8125 46.9375 C13.8698627 45.81921578 11.9267061 44.70184023 9.98332214 43.58485413 C8.22732994 42.57496225 6.47264094 41.56280539 4.71801758 40.55053711 C3.16515962 39.66468416 1.59902552 38.79951276 0 38 C0 25.46 0 12.92 0 0 Z " fill="#7652A2" transform="translate(198,247)"/>
<path d="M0 0 C19.00990782 9.24651105 37.54029262 19.41146972 55.89282227 29.89331055 C64.86083292 34.98371694 73.97066159 39.7924257 83.09063721 44.60269165 C91.63448192 49.11186656 100.11681149 53.69615893 108.5 58.5 C117.8423717 63.84972267 127.30344407 68.95475483 136.8125 74 C137.83972168 74.54563599 137.83972168 74.54563599 138.88769531 75.10229492 C139.55639648 75.45718994 140.22509766 75.81208496 140.9140625 76.17773438 C141.56739059 76.52484467 142.22071869 76.87195496 142.8938446 77.22958374 C144.17468193 77.90391881 145.45966264 78.57044819 146.74885559 79.22866821 C149.50983042 80.64137849 152.11928652 82.08267944 154.6706543 83.85107422 C157.22626048 85.53776908 158.9702672 86.5158867 162 87 C167.20515006 85.52469908 171.58982195 82.886151 176.1875 80.125 C177.52668138 79.36076231 178.86802578 78.60030336 180.21142578 77.84350586 C183.55686734 75.94838411 186.87581482 74.01163889 190.18902588 72.06085205 C193.66514579 70.02457285 197.17894047 68.05507461 200.6887207 66.07763672 C202.49354906 65.05966301 204.29543921 64.03646391 206.09448242 63.00830078 C214.98911267 57.93871005 224.03734189 53.17230389 233.09173584 48.39675903 C241.63520421 43.88776885 250.11726172 39.3037876 258.5 34.5 C268.98344307 28.49452414 279.6361234 22.83390099 290.31860352 17.19360352 C299.07348105 12.56907326 307.78343903 7.87431657 316.4284668 3.04638672 C321.90174818 0 321.90174818 0 323 0 C323 7.26 323 14.52 323 22 C313.86328105 27.18333095 304.68561334 32.2682361 295.4375 37.25 C287.56903135 41.48966814 279.76022917 45.81558333 272 50.25 C262.07889622 55.91126835 252.01379093 61.27291327 241.91192627 66.60140991 C232.4107282 71.61614008 223.00720345 76.76286906 213.68432617 82.10400391 C204.41354478 87.3900409 194.99127201 92.38408543 185.55029297 97.35766602 C184.94719299 97.67649246 184.34409302 97.99531891 183.72271729 98.32380676 C181.9524892 99.25932309 180.18060203 100.19169784 178.40869141 101.12402344 C174.04502134 103.52557342 169.8637733 106.18829161 165.70776367 108.93212891 C163 110 163 110 160.02636719 109.36987305 C156.98857404 107.99482808 154.03475508 106.55993508 151.09765625 104.98046875 C149.4101123 104.07578857 149.4101123 104.07578857 147.68847656 103.15283203 C146.47968908 102.49795873 145.27103357 101.84284176 144.0625 101.1875 C142.79792978 100.50620245 141.53328023 99.82505214 140.26855469 99.14404297 C131.78227684 94.56270776 123.38031126 89.84396791 115.00805664 85.05737305 C106.07478211 79.97977886 96.99647427 75.19018991 87.90881348 70.39703369 C78.44928674 65.40458266 69.08976876 60.27805436 59.80957031 54.95751953 C52.93056292 51.03655827 45.96865949 47.29416111 38.96484375 43.6027832 C36.17310097 42.13119847 33.38980687 40.64535693 30.61328125 39.14526367 C24.72415088 35.97129837 18.88892598 32.88562731 12.734375 30.24609375 C2.72660101 25.73415064 2.72660101 25.73415064 0 22 C-2.09470392 14.81199992 -1.19062019 7.28543866 0 0 Z " fill="#E45793" transform="translate(90,378)"/>
<path d="M0 0 C0 7.26 0 14.52 0 22 C-9.13671895 27.18333095 -18.31438666 32.2682361 -27.5625 37.25 C-35.43096865 41.48966814 -43.23977083 45.81558333 -51 50.25 C-60.92110378 55.91126835 -70.98620907 61.27291327 -81.08807373 66.60140991 C-90.58841725 71.61568905 -99.99006943 76.76362266 -109.31347656 82.10180664 C-118.62061643 87.4060806 -128.07301158 92.42972446 -137.53759766 97.44555664 C-138.1434671 97.76666916 -138.74933655 98.08778168 -139.37356567 98.41862488 C-141.13466209 99.35138405 -142.89642557 100.28288344 -144.65820312 101.21435547 C-148.76719068 103.4099381 -152.83845848 105.67030503 -156.89941406 107.95336914 C-159 109 -159 109 -161 109 C-161 101.74 -161 94.48 -161 87 C-158.15181641 85.49373047 -158.15181641 85.49373047 -155.24609375 83.95703125 C-143.29600704 77.62473457 -131.36155917 71.28523723 -119.625 64.5625 C-109.83107572 58.95578856 -99.88866611 53.66070684 -89.90826416 48.39675903 C-81.36479579 43.88776885 -72.88273828 39.3037876 -64.5 34.5 C-54.01655693 28.49452414 -43.3638766 22.83390099 -32.68139648 17.19360352 C-23.92651895 12.56907326 -15.21656097 7.87431657 -6.5715332 3.04638672 C-1.09825182 0 -1.09825182 0 0 0 Z " fill="#D25590" transform="translate(413,378)"/>
</svg>
