<svg width="24" height="25" viewBox="0 0 24 25" fill="none" xmlns="http://www.w3.org/2000/svg">
<g id="uil:language">
<path id="Vector" d="M21.056 12.4999H19.056C18.7908 12.4999 18.5364 12.6052 18.3489 12.7928C18.1614 12.9803 18.056 13.2347 18.056 13.4999C18.056 13.7651 18.1614 14.0195 18.3489 14.207C18.5364 14.3945 18.7908 14.4999 19.056 14.4999V16.4999H17.87C17.9881 16.1795 18.0507 15.8413 18.055 15.4999C18.055 14.8395 17.8371 14.1976 17.435 13.6737C17.033 13.1498 16.4694 12.7732 15.8315 12.6022C15.1936 12.4313 14.5172 12.4756 13.907 12.7283C13.2969 12.981 12.7872 13.428 12.457 13.9999C12.3903 14.1137 12.3468 14.2395 12.3289 14.3702C12.3111 14.5008 12.3192 14.6337 12.3529 14.7612C12.3866 14.8887 12.4452 15.0083 12.5253 15.1131C12.6054 15.2178 12.7055 15.3057 12.8197 15.3716C12.9339 15.4376 13.06 15.4803 13.1908 15.4973C13.3216 15.5143 13.4544 15.5052 13.5817 15.4707C13.709 15.4361 13.8282 15.3768 13.9324 15.2959C14.0366 15.2151 14.1238 15.1145 14.189 14.9999C14.2768 14.8479 14.403 14.7216 14.555 14.6339C14.707 14.5461 14.8795 14.4999 15.055 14.4999C15.3202 14.4999 15.5746 14.6052 15.7621 14.7928C15.9497 14.9803 16.055 15.2347 16.055 15.4999C16.055 15.7651 15.9497 16.0195 15.7621 16.207C15.5746 16.3945 15.3202 16.4999 15.055 16.4999C14.7898 16.4999 14.5354 16.6052 14.3479 16.7928C14.1604 16.9803 14.055 17.2347 14.055 17.4999C14.055 17.7651 14.1604 18.0195 14.3479 18.207C14.5354 18.3945 14.7898 18.4999 15.055 18.4999C15.3202 18.4999 15.5746 18.6052 15.7621 18.7928C15.9497 18.9803 16.055 19.2347 16.055 19.4999C16.055 19.7651 15.9497 20.0195 15.7621 20.207C15.5746 20.3945 15.3202 20.4999 15.055 20.4999C14.8795 20.4999 14.707 20.4537 14.555 20.3659C14.403 20.2781 14.2768 20.1519 14.189 19.9999C14.1238 19.8852 14.0366 19.7846 13.9324 19.7038C13.8282 19.623 13.709 19.5636 13.5817 19.5291C13.4544 19.4945 13.3216 19.4855 13.1908 19.5025C13.06 19.5195 12.9339 19.5622 12.8197 19.6281C12.7055 19.6941 12.6054 19.7819 12.5253 19.8867C12.4452 19.9915 12.3866 20.111 12.3529 20.2385C12.3192 20.366 12.3111 20.4989 12.3289 20.6296C12.3468 20.7603 12.3903 20.8861 12.457 20.9999C12.7872 21.5718 13.2969 22.0187 13.907 22.2714C14.5172 22.5241 15.1936 22.5684 15.8315 22.3975C16.4694 22.2266 17.033 21.85 17.435 21.3261C17.8371 20.8022 18.055 20.1603 18.055 19.4999C18.0507 19.1585 17.9881 18.8203 17.87 18.4999H19.055V21.4999C19.055 21.7651 19.1604 22.0195 19.3479 22.207C19.5354 22.3945 19.7898 22.4999 20.055 22.4999C20.3202 22.4999 20.5746 22.3945 20.7621 22.207C20.9497 22.0195 21.055 21.7651 21.055 21.4999V14.4999C21.3202 14.4999 21.5746 14.3945 21.7621 14.207C21.9497 14.0195 22.055 13.7651 22.055 13.4999C22.055 13.2347 21.9497 12.9803 21.7621 12.7928C21.5746 12.6052 21.3212 12.4999 21.056 12.4999ZM9.08502 11.7429C9.11616 11.8711 9.17236 11.9918 9.25038 12.0982C9.3284 12.2046 9.4267 12.2945 9.53962 12.3627C9.65253 12.4309 9.77782 12.4761 9.90829 12.4957C10.0387 12.5153 10.1718 12.5089 10.2998 12.4768C10.4277 12.4448 10.5481 12.3877 10.6539 12.3089C10.7597 12.2302 10.8489 12.1312 10.9163 12.0178C10.9837 11.9044 11.0281 11.7788 11.0467 11.6482C11.0654 11.5176 11.058 11.3846 11.025 11.2569L9.26802 4.22688C9.14511 3.73307 8.86053 3.29456 8.45959 2.98118C8.05865 2.6678 7.5644 2.49756 7.05552 2.49756C6.54664 2.49756 6.05238 2.6678 5.65144 2.98118C5.2505 3.29456 4.96593 3.73307 4.84302 4.22688L3.08502 11.2569C3.05205 11.3846 3.04468 11.5176 3.06333 11.6482C3.08199 11.7788 3.1263 11.9044 3.19371 12.0178C3.26113 12.1312 3.35031 12.2302 3.45613 12.3089C3.56195 12.3877 3.68231 12.4448 3.81028 12.4768C3.93825 12.5089 4.07129 12.5153 4.20175 12.4957C4.33221 12.4761 4.45751 12.4309 4.57042 12.3627C4.68334 12.2945 4.78163 12.2046 4.85965 12.0982C4.93767 11.9918 4.99388 11.8711 5.02502 11.7429L5.58502 9.49988H8.52502L9.08502 11.7429ZM6.08602 7.49988L6.78302 4.71288C6.80404 4.65749 6.84141 4.60981 6.89017 4.57616C6.93893 4.54251 6.99678 4.52449 7.05602 4.52449C7.11526 4.52449 7.1731 4.54251 7.22187 4.57616C7.27063 4.60981 7.308 4.65749 7.32902 4.71288L8.02602 7.49988H6.08602ZM14.056 7.49988H15.056C15.3212 7.49988 15.5756 7.60524 15.7631 7.79278C15.9507 7.98031 16.056 8.23467 16.056 8.49988V9.49988C16.056 9.7651 16.1614 10.0195 16.3489 10.207C16.5364 10.3945 16.7908 10.4999 17.056 10.4999C17.3212 10.4999 17.5756 10.3945 17.7631 10.207C17.9507 10.0195 18.056 9.7651 18.056 9.49988V8.49988C18.0552 7.70448 17.7389 6.94188 17.1765 6.37944C16.614 5.817 15.8514 5.50068 15.056 5.49988H14.056C13.7908 5.49988 13.5364 5.60524 13.3489 5.79278C13.1614 5.98031 13.056 6.23467 13.056 6.49988C13.056 6.7651 13.1614 7.01945 13.3489 7.20699C13.5364 7.39453 13.7908 7.49988 14.056 7.49988ZM10.056 16.4999H9.05602C8.7908 16.4999 8.53645 16.3945 8.34891 16.207C8.16138 16.0195 8.05602 15.7651 8.05602 15.4999V14.4999C8.05602 14.2347 7.95066 13.9803 7.76313 13.7928C7.57559 13.6052 7.32124 13.4999 7.05602 13.4999C6.7908 13.4999 6.53645 13.6052 6.34891 13.7928C6.16138 13.9803 6.05602 14.2347 6.05602 14.4999V15.4999C6.05681 16.2953 6.37314 17.0579 6.93558 17.6203C7.49801 18.1828 8.26061 18.4991 9.05602 18.4999H10.056C10.3212 18.4999 10.5756 18.3945 10.7631 18.207C10.9507 18.0195 11.056 17.7651 11.056 17.4999C11.056 17.2347 10.9507 16.9803 10.7631 16.7928C10.5756 16.6052 10.3212 16.4999 10.056 16.4999Z" fill="black"/>
</g>
</svg>
