<svg width="66" height="58" viewBox="0 0 66 58" fill="none" xmlns="http://www.w3.org/2000/svg">
<path id="Vector" d="M33.4964 0.768549L56.8174 22.5772H48.2862L31.5652 6.94097L14.3478 23.0436V52.0962H28.6957V58H11.4783C10.7172 58 9.98732 57.689 9.44917 57.1354C8.91103 56.5818 8.6087 55.831 8.6087 55.0481V28.481H0L14.817 14.6248L29.634 0.768549C30.1623 0.274041 30.8509 0 31.5652 0C32.2795 0 32.9681 0.274041 33.4964 0.768549ZM37.3043 28.481H63.1304V49.1443H37.3043V28.481ZM43.0435 34.3848V43.2405H57.3913V34.3848H43.0435ZM66 58H34.4348V52.0962H66V58Z" fill="black"/>
</svg>
