<svg width="35" height="31" viewBox="0 0 35 31" fill="none" xmlns="http://www.w3.org/2000/svg">
<path id="Vector" d="M17.0833 0.914795C26.5185 0.914795 34.1667 7.44375 34.1667 15.4981C34.1667 23.5525 26.5185 30.0815 17.0833 30.0815C14.3197 30.0846 11.5967 29.513 9.14985 28.416L1.8211 30.045C1.57622 30.0994 1.31892 30.0983 1.07471 30.0417C0.8305 29.9851 0.607851 29.8751 0.428832 29.7224C0.249813 29.5697 0.120639 29.3797 0.0541121 29.1713C-0.012415 28.9629 -0.0139851 28.7433 0.0495573 28.5342L1.95606 22.2794C0.667697 20.1884 -0.00372365 17.8607 1.55325e-05 15.4981C1.55325e-05 7.44375 7.64823 0.914795 17.0833 0.914795ZM17.0833 20.6023C16.6303 20.6023 16.1958 20.7559 15.8754 21.0294C15.555 21.3029 15.375 21.6739 15.375 22.0606C15.375 22.4474 15.555 22.8183 15.8754 23.0918C16.1958 23.3653 16.6303 23.519 17.0833 23.519C17.5364 23.519 17.9709 23.3653 18.2913 23.0918C18.6117 22.8183 18.7917 22.4474 18.7917 22.0606C18.7917 21.6739 18.6117 21.3029 18.2913 21.0294C17.9709 20.7559 17.5364 20.6023 17.0833 20.6023ZM17.0833 7.84188C15.8374 7.84188 14.6425 8.2644 13.7614 9.0165C12.8804 9.7686 12.3854 10.7887 12.3854 11.8523C12.3855 12.1294 12.5089 12.3962 12.7305 12.5987C12.9521 12.8011 13.2555 12.9243 13.5794 12.9432C13.9032 12.9621 14.2234 12.8753 14.4752 12.7004C14.7271 12.5255 14.8917 12.2756 14.936 12.001L14.9599 11.6656C15.0176 11.202 15.2812 10.7748 15.6966 10.472C16.1119 10.1692 16.6474 10.0138 17.1929 10.0377C17.7383 10.0616 18.2523 10.263 18.6292 10.6005C19.006 10.9381 19.217 11.386 19.2188 11.8523C19.2188 12.6383 18.9881 13.0263 18.1169 13.7948L17.5976 14.2469C16.3095 15.3902 15.8021 16.2113 15.8021 17.6856C15.8021 17.9757 15.9371 18.2539 16.1774 18.459C16.4177 18.6641 16.7435 18.7794 17.0833 18.7794C17.4232 18.7794 17.749 18.6641 17.9893 18.459C18.2296 18.2539 18.3646 17.9757 18.3646 17.6856C18.3646 16.8996 18.5952 16.5117 19.4665 15.7431L19.9858 15.291C21.2739 14.1477 21.7813 13.3267 21.7813 11.8523C21.7813 10.7887 21.2863 9.7686 20.4053 9.0165C19.5242 8.2644 18.3293 7.84188 17.0833 7.84188Z" fill="black"/>
</svg>
